<svg xmlns="http://www.w3.org/2000/svg" viewBox="0 0 149.1 119.8"><path d="M122.9 119.8c10.9 0 14.9-4.7 14.9-16.2V81.1c0-10.7 5.2-16.8 10.2-19.7 1.5-.9 1.5-3 0-4-5.2-3.3-10.2-10.2-10.2-19.4V16c0-12.4-3.4-16-14.3-16H25.6C14.7 0 11.3 3.6 11.3 16v22.1c0 9.2-5 16.1-10.2 19.4-1.5.9-1.5 3.1 0 4 5 2.8 10.2 8.9 10.2 19.7v22.4c0 11.5 4 16.2 14.9 16.2h96.7zM74.3 99.3c-11.7 0-20.2-3.5-28.1-10.4-1.3-1.2-1.8-2.7-1.8-4.2 0-1.2.3-2.5 1.2-3.5l2.5-3.2c1.2-1.5 2.5-2.2 4-2.2 1.7 0 3.3.7 5 1.8 5.4 3.5 11.4 5.5 18.6 5.5 5.5 0 9.9-2.3 9.9-7 0-12.2-40.6-5.5-40.6-32.9 0-14.7 12-22.9 27.6-22.9 11 0 19.1 3.2 25.1 7 1.5 1 2.5 3 2.5 5 0 1.2-.3 2.3-1 3.3l-1.8 2.7c-1.3 1.8-2.8 2.7-4.7 2.7-1.3 0-2.7-.5-4.2-1.2-4.5-2.3-9.2-3.5-14.9-3.5-5.9 0-9.4 3.2-9.4 6.5 0 12.5 40.6 5.7 40.6 32.3 0 15-12.1 24.2-30.5 24.2z" fill="#191A1B"/></svg>
